<svg xmlns="http://www.w3.org/2000/svg"  viewBox="0 0 100 100" width="500px" height="500px"><path d="M93,80.5v-33c0-2.894-1.902-5.35-4.521-6.19c1.544-1.806,2.49-4.137,2.52-6.686l2.561-2.049 c1.355-1.084,2.208-2.632,2.4-4.357s-0.3-3.423-1.383-4.777C93.338,21.89,91.487,21,89.5,21c-1.468,0-2.909,0.504-4.06,1.424 l-2.367,1.894C82.24,24.107,81.378,24,80.5,24c-0.712,0-1.414,0.071-2.098,0.21l-6.567-6.567C70.957,12.736,66.656,9,61.5,9 C55.71,9,51,13.71,51,19.5c0,0.215,0.006,0.429,0.02,0.642l-7.666,8.893C43.07,29.012,42.785,29,42.5,29 c-0.943,0-1.868,0.124-2.758,0.367l-5.832-4.242C33.235,19.983,28.824,16,23.5,16C17.71,16,13,20.71,13,26.5 c0,0.255,0.009,0.511,0.028,0.765l-2.69,2.242c-2.752,2.294-3.126,6.4-0.831,9.156c0.635,0.761,1.424,1.353,2.302,1.752 C11.295,41.346,11,42.414,11,43.551v36.624c-2.863,0.679-5,3.257-5,6.325c0,3.584,2.916,6.5,6.5,6.5h78c3.584,0,6.5-2.916,6.5-6.5 C97,83.801,95.347,81.481,93,80.5z" opacity=".35"/><path fill="#f2f2f2" d="M91,78.5v-33c0-2.894-1.902-5.35-4.521-6.19c1.544-1.806,2.49-4.137,2.52-6.686l2.561-2.049 c1.355-1.084,2.208-2.632,2.4-4.357s-0.3-3.423-1.383-4.777C91.338,19.89,89.487,19,87.5,19c-1.468,0-2.909,0.504-4.06,1.424 l-2.367,1.894C80.24,22.107,79.378,22,78.5,22c-0.712,0-1.414,0.071-2.098,0.21l-6.567-6.567C68.957,10.736,64.656,7,59.5,7 C53.71,7,49,11.71,49,17.5c0,0.215,0.006,0.429,0.02,0.642l-7.666,8.893C41.07,27.012,40.785,27,40.5,27 c-0.943,0-1.868,0.124-2.758,0.367l-5.832-4.242C31.235,17.983,26.824,14,21.5,14C15.71,14,11,18.71,11,24.5 c0,0.255,0.009,0.511,0.028,0.765l-2.69,2.242c-2.752,2.294-3.126,6.4-0.831,9.156c0.635,0.761,1.424,1.353,2.302,1.752 C9.295,39.346,9,40.414,9,41.551v36.624c-2.863,0.679-5,3.257-5,6.325c0,3.584,2.916,6.5,6.5,6.5h78c3.584,0,6.5-2.916,6.5-6.5 C95,81.801,93.347,79.481,91,78.5z"/><circle cx="21.5" cy="24.5" r="4" fill="#ffc571"/><circle cx="40.5" cy="37.5" r="4" fill="#ffc571"/><circle cx="59.5" cy="17.5" r="4" fill="#ffc571"/><circle cx="78.5" cy="32.5" r="4" fill="#ffc571"/><polygon fill="#ffc571" points="27,84 15.5,84 15.5,41.551 27.5,41.551"/><polygon fill="#ff7575" points="65.5,84.5 54,84.5 53.5,33.5 65.5,33.5"/><polygon fill="#70bfff" points="84.5,84.5 73,84.5 72.5,45.5 84.5,45.5"/><rect width="12" height="42.949" x="15.5" y="41.551" fill="none" stroke="#40396e" stroke-linecap="round" stroke-linejoin="round" stroke-miterlimit="10" stroke-width="3"/><polygon fill="#96c362" points="46,84 34.5,84 34.5,55.492 46.5,55.492"/><rect width="12" height="29.008" x="34.5" y="55.492" fill="none" stroke="#40396e" stroke-linecap="round" stroke-linejoin="round" stroke-miterlimit="10" stroke-width="3"/><rect width="12" height="51" x="53.5" y="33.5" fill="none" stroke="#40396e" stroke-linecap="round" stroke-linejoin="round" stroke-miterlimit="10" stroke-width="3"/><rect width="12" height="39" x="72.5" y="45.5" fill="none" stroke="#40396e" stroke-linecap="round" stroke-linejoin="round" stroke-miterlimit="10" stroke-width="3"/><line x1="10.5" x2="88.5" y1="84.5" y2="84.5" fill="none" stroke="#40396e" stroke-linecap="round" stroke-linejoin="round" stroke-miterlimit="10" stroke-width="3"/><circle cx="21.5" cy="24.5" r="4" fill="none" stroke="#40396e" stroke-linecap="round" stroke-linejoin="round" stroke-miterlimit="10" stroke-width="3"/><circle cx="40.5" cy="37.5" r="4" fill="none" stroke="#40396e" stroke-linecap="round" stroke-linejoin="round" stroke-miterlimit="10" stroke-width="3"/><circle cx="59.5" cy="17.5" r="4" fill="none" stroke="#40396e" stroke-linecap="round" stroke-linejoin="round" stroke-miterlimit="10" stroke-width="3"/><circle cx="78.5" cy="32.5" r="4" fill="none" stroke="#40396e" stroke-linecap="round" stroke-linejoin="round" stroke-miterlimit="10" stroke-width="3"/><line x1="12.5" x2="18.5" y1="32.5" y2="27.5" fill="none" stroke="#40396e" stroke-linecap="round" stroke-linejoin="round" stroke-miterlimit="10" stroke-width="3"/><line x1="82.5" x2="87.5" y1="29.5" y2="25.5" fill="none" stroke="#40396e" stroke-linecap="round" stroke-linejoin="round" stroke-miterlimit="10" stroke-width="3"/><line x1="25.5" x2="36.5" y1="26.5" y2="34.5" fill="none" stroke="#40396e" stroke-linecap="round" stroke-linejoin="round" stroke-miterlimit="10" stroke-width="3"/><line x1="43.5" x2="56" y1="34.5" y2="20" fill="none" stroke="#40396e" stroke-linecap="round" stroke-linejoin="round" stroke-miterlimit="10" stroke-width="3"/><line x1="63.5" x2="74.5" y1="18.5" y2="29.5" fill="none" stroke="#40396e" stroke-linecap="round" stroke-linejoin="round" stroke-miterlimit="10" stroke-width="3"/></svg>